# xmcd
#
# Track frame offsets: 
#        150
#        20822
#        40827
#        67315
#        82333
#        101752
#        112581
#        132177
#        161500
#        173038
#        183447
#        197854
#        215901
#        230170
#        244625
#        262802
#        286294
#
# Disc length: 4059 seconds
#
# Revision: 2
# Processed by: cddbd v1.5.1PL2 Copyright (c) Steve Scherf et al.
# Submitted via: ExactAudioCopy v0.95a5
#
DISCID=fc0fd911
DTITLE=DUKE ROBILLARD and the Pleasure Kings - Rockin' Blues
DYEAR=1985
DGENRE=Blues Rock
TTITLE0=If This Is Love
TTITLE1=Too Hot To Handle
TTITLE2=Rockin' Blues
TTITLE3=Tore Up
TTITLE4=Let Me Love You
TTITLE5=Baby Please Come Home
TTITLE6=She's Sweet
TTITLE7=Duke's Mood
TTITLE8=One More Time
TTITLE9=Someone
TTITLE10=She Made My Mind
TTITLE11=Anything It Takes
TTITLE12=My Plea
TTITLE13=It's My Own Business
TTITLE14=Give Me All The Love You Got
TTITLE15=Just Kiss Me
TTITLE16=Give Me Your Attention
EXTD=
EXTT0=
EXTT1=
EXTT2=
EXTT3=
EXTT4=
EXTT5=
EXTT6=
EXTT7=
EXTT8=
EXTT9=
EXTT10=
EXTT11=
EXTT12=
EXTT13=
EXTT14=
EXTT15=
EXTT16=
PLAYORDER=
